<svg width="16" height="16" viewBox="0 0 16 16" fill="none" xmlns="http://www.w3.org/2000/svg" class=""><path d="M16 0H0V16H16V0Z" fill="white" fill-opacity="0.01"></path><path fill-rule="evenodd" clip-rule="evenodd" d="M0.683594 2.33335C0.683594 1.97436 0.974609 1.68335 1.33359 1.68335H14.6669C15.0259 1.68335 15.3169 1.97436 15.3169 2.33335V11C15.3169 11.359 15.0259 11.65 14.6669 11.65H8.6501V13C8.6501 13.0056 8.65003 13.0111 8.64989 13.0167H12.0001C12.3591 13.0167 12.6501 13.3077 12.6501 13.6667C12.6501 14.0257 12.3591 14.3167 12.0001 14.3167H4.0001C3.64111 14.3167 3.3501 14.0257 3.3501 13.6667C3.3501 13.3077 3.64111 13.0167 4.0001 13.0167H7.35031C7.35017 13.0111 7.3501 13.0056 7.3501 13V11.65H1.33359C0.974609 11.65 0.683594 11.359 0.683594 11V2.33335ZM1.98359 2.98335V10.35H14.0169V2.98335H1.98359Z" fill="currentColor"></path></svg>