<svg width="16" height="16" viewBox="0 0 16 16" fill="none" xmlns="http://www.w3.org/2000/svg"><path fill-rule="evenodd" clip-rule="evenodd" d="M11.2 1.00012H8H4.80003C3.56489 1.00012 2.56006 2.00495 2.56006 3.24009V12.7599C2.56006 13.9951 3.56489 14.9999 4.80003 14.9999H11.2C12.4351 14.9999 13.4399 13.9951 13.4399 12.7599V3.24009C13.4399 2.00495 12.4351 1.00012 11.2 1.00012ZM12.1599 12.76C12.1599 13.2893 11.7293 13.7199 11.2 13.7199H4.80003C4.27067 13.7199 3.84006 13.2893 3.84006 12.76V3.24009C3.84006 2.71073 4.27068 2.28011 4.80003 2.28011H11.2C11.7293 2.28011 12.1599 2.71073 12.1599 3.24009V12.76ZM5.91992 3.7201C5.91992 3.36664 6.20646 3.08011 6.55991 3.08011H9.43987C9.79333 3.08011 10.0799 3.36664 10.0799 3.7201C10.0799 4.07356 9.79333 4.36009 9.43987 4.36009H6.55991C6.20646 4.36009 5.91992 4.07356 5.91992 3.7201ZM7.26109 12.4261C7.22089 12.329 7.2002 12.225 7.2002 12.12C7.2002 11.9078 7.28448 11.7043 7.4345 11.5543C7.58453 11.4043 7.78801 11.32 8.00018 11.32C8.21235 11.32 8.41582 11.4043 8.56585 11.5543C8.71588 11.7043 8.80016 11.9078 8.80016 12.12C8.80016 12.225 8.77947 12.329 8.73926 12.4261C8.69906 12.5232 8.64014 12.6114 8.56585 12.6856C8.49157 12.7599 8.40338 12.8189 8.30632 12.8591C8.20926 12.8993 8.10523 12.92 8.00018 12.92C7.89512 12.92 7.7911 12.8993 7.69404 12.8591C7.59698 12.8189 7.50879 12.7599 7.4345 12.6856C7.36022 12.6114 7.30129 12.5232 7.26109 12.4261Z" fill="currentColor"></path></svg>